<svg width="20" height="20" viewBox="0 0 20 20" fill="none" xmlns="http://www.w3.org/2000/svg">
<g id="book-open">
<path id="Icon" d="M10.0001 5.83333C10.0001 4.94928 9.64889 4.10143 9.02377 3.47631C8.39865 2.85119 7.5508 2.5 6.66675 2.5H1.66675V15H7.50008C8.16312 15 8.79901 15.2634 9.26785 15.7322C9.73669 16.2011 10.0001 16.837 10.0001 17.5M10.0001 5.83333V17.5M10.0001 5.83333C10.0001 4.94928 10.3513 4.10143 10.9764 3.47631C11.6015 2.85119 12.4494 2.5 13.3334 2.5H18.3334V15H12.5001C11.837 15 11.2012 15.2634 10.7323 15.7322C10.2635 16.2011 10.0001 16.837 10.0001 17.5" stroke="#667085" stroke-width="1.66667" stroke-linecap="round" stroke-linejoin="round"/>
</g>
</svg>
