<svg width="21" height="20" viewBox="0 0 21 20" fill="none" xmlns="http://www.w3.org/2000/svg">
<g id="copy">
<path id="Icon" d="M4.66675 12.5001H3.83341C3.39139 12.5001 2.96746 12.3245 2.6549 12.0119C2.34234 11.6994 2.16675 11.2754 2.16675 10.8334V3.33341C2.16675 2.89139 2.34234 2.46746 2.6549 2.1549C2.96746 1.84234 3.39139 1.66675 3.83341 1.66675H11.3334C11.7754 1.66675 12.1994 1.84234 12.5119 2.1549C12.8245 2.46746 13.0001 2.89139 13.0001 3.33341V4.16675M9.66675 7.50008H17.1667C18.0872 7.50008 18.8334 8.24627 18.8334 9.16675V16.6667C18.8334 17.5872 18.0872 18.3334 17.1667 18.3334H9.66675C8.74627 18.3334 8.00008 17.5872 8.00008 16.6667V9.16675C8.00008 8.24627 8.74627 7.50008 9.66675 7.50008Z" stroke="white" stroke-width="1.67" stroke-linecap="round" stroke-linejoin="round"/>
</g>
</svg>
