<svg width="20" height="21" viewBox="0 0 20 21" fill="none" xmlns="http://www.w3.org/2000/svg">
<g id="copy">
<path id="Icon" d="M4.16663 13H3.33329C2.89127 13 2.46734 12.8244 2.15478 12.5118C1.84222 12.1992 1.66663 11.7753 1.66663 11.3333V3.83329C1.66663 3.39127 1.84222 2.96734 2.15478 2.65478C2.46734 2.34222 2.89127 2.16663 3.33329 2.16663H10.8333C11.2753 2.16663 11.6992 2.34222 12.0118 2.65478C12.3244 2.96734 12.5 3.39127 12.5 3.83329V4.66663M9.16663 7.99996H16.6666C17.5871 7.99996 18.3333 8.74615 18.3333 9.66663V17.1666C18.3333 18.0871 17.5871 18.8333 16.6666 18.8333H9.16663C8.24615 18.8333 7.49996 18.0871 7.49996 17.1666V9.66663C7.49996 8.74615 8.24615 7.99996 9.16663 7.99996Z" stroke="#344054" stroke-width="1.67" stroke-linecap="round" stroke-linejoin="round"/>
</g>
</svg>
