<svg width="20" height="21" viewBox="0 0 20 21" fill="none" xmlns="http://www.w3.org/2000/svg">
<g id="edit">
<path id="Icon" d="M9.16663 3.83332H3.33329C2.89127 3.83332 2.46734 4.00891 2.15478 4.32147C1.84222 4.63403 1.66663 5.05796 1.66663 5.49999V17.1667C1.66663 17.6087 1.84222 18.0326 2.15478 18.3452C2.46734 18.6577 2.89127 18.8333 3.33329 18.8333H15C15.442 18.8333 15.8659 18.6577 16.1785 18.3452C16.491 18.0326 16.6666 17.6087 16.6666 17.1667V11.3333M15.4166 2.58332C15.7481 2.2518 16.1978 2.06555 16.6666 2.06555C17.1355 2.06555 17.5851 2.2518 17.9166 2.58332C18.2481 2.91484 18.4344 3.36448 18.4344 3.83332C18.4344 4.30216 18.2481 4.7518 17.9166 5.08332L9.99996 13L6.66663 13.8333L7.49996 10.5L15.4166 2.58332Z" stroke="#344054" stroke-width="1.67" stroke-linecap="round" stroke-linejoin="round"/>
</g>
</svg>
