<svg width="89" height="32" viewBox="0 0 89 32" fill="none" xmlns="http://www.w3.org/2000/svg">
    <mask id="path-1-inside-1_6556_1323" fill="white">
        <path
            d="M14.3447 30.3536C18.1492 30.3536 21.7978 28.8423 24.488 26.1521C27.1781 23.462 28.6895 19.8133 28.6895 16.0089C28.6895 12.2044 27.1781 8.55576 24.488 5.8656C21.7978 3.17544 18.1492 1.66412 14.3447 1.66412L14.3447 16.0089L14.3447 30.3536Z" />
    </mask>
    <path
        d="M14.3447 30.3536C18.1492 30.3536 21.7978 28.8423 24.488 26.1521C27.1781 23.462 28.6895 19.8133 28.6895 16.0089C28.6895 12.2044 27.1781 8.55576 24.488 5.8656C21.7978 3.17544 18.1492 1.66412 14.3447 1.66412L14.3447 16.0089L14.3447 30.3536Z"
        stroke="#98A2B3" stroke-width="2" mask="url(#path-1-inside-1_6556_1323)" />
    <mask id="path-2-inside-2_6556_1323" fill="white">
        <path fill-rule="evenodd" clip-rule="evenodd" d="M0 3.31299V30.3536H9.56315V1.66412H9.3512L0 3.31299Z" />
    </mask>
    <path
        d="M0 30.3536H-1V31.3536H0V30.3536ZM0 3.31299L-0.173648 2.32818L-1 2.47389V3.31299H0ZM9.56315 30.3536V31.3536H10.5632V30.3536H9.56315ZM9.56315 1.66412H10.5632V0.664124H9.56315V1.66412ZM9.3512 1.66412V0.664124H9.26371L9.17755 0.679316L9.3512 1.66412ZM1 30.3536V3.31299H-1V30.3536H1ZM9.56315 29.3536H0V31.3536H9.56315V29.3536ZM8.56315 1.66412V30.3536H10.5632V1.66412H8.56315ZM9.3512 2.66412H9.56315V0.664124H9.3512V2.66412ZM9.17755 0.679316L-0.173648 2.32818L0.173648 4.2978L9.52485 2.64893L9.17755 0.679316Z"
        fill="#98A2B3" mask="url(#path-2-inside-2_6556_1323)" />
    <rect x="47.4961" y="2.13965" width="8.56315" height="27.6895" stroke="#98A2B3" />
    <rect x="61.8408" y="2.13965" width="8.56315" height="27.6895" stroke="#98A2B3" />
    <mask id="path-6-inside-3_6556_1323" fill="white">
        <path fill-rule="evenodd" clip-rule="evenodd"
            d="M78.941 1.77645L73.9064 30.3293H83.6171L88.6517 1.77645H78.941ZM88.9373 0.15688L88.9612 0.0216012L88.9373 0.0173952V0.15688ZM73.6363 31.8614V32.0004L73.6125 31.9962L73.6363 31.8614Z" />
    </mask>
    <path
        d="M78.941 1.77645V0.776449H78.1019L77.9562 1.6028L78.941 1.77645ZM73.9064 30.3293L72.9216 30.1556L72.7147 31.3293H73.9064V30.3293ZM83.6171 30.3293V31.3293H84.4562L84.6019 30.5029L83.6171 30.3293ZM88.6517 1.77645L89.6365 1.9501L89.8435 0.776449H88.6517V1.77645ZM88.9373 0.15688H87.9373L89.9221 0.330528L88.9373 0.15688ZM88.9612 0.0216012L89.946 0.195249L90.1196 -0.789558L89.1348 -0.963207L88.9612 0.0216012ZM88.9373 0.0173952L89.111 -0.967413L87.9373 -1.17436V0.0173952H88.9373ZM73.6363 32.0004L73.4626 32.9852L74.6363 33.1921V32.0004H73.6363ZM73.6363 31.8614H74.6363L72.6514 31.6878L73.6363 31.8614ZM73.6125 31.9962L72.6277 31.8226L72.454 32.8074L73.4389 32.981L73.6125 31.9962ZM77.9562 1.6028L72.9216 30.1556L74.8912 30.5029L79.9259 1.9501L77.9562 1.6028ZM73.9064 31.3293H83.6171V29.3293H73.9064V31.3293ZM84.6019 30.5029L89.6365 1.9501L87.6669 1.6028L82.6323 30.1556L84.6019 30.5029ZM88.6517 0.776449H78.941V2.77645H88.6517V0.776449ZM89.9221 0.330528L89.946 0.195249L87.9763 -0.152047L87.9525 -0.0167682L89.9221 0.330528ZM89.1348 -0.963207L89.111 -0.967413L88.7637 1.0022L88.7875 1.00641L89.1348 -0.963207ZM87.9373 0.0173952V0.15688H89.9373V0.0173952H87.9373ZM74.6363 32.0004V31.8614H72.6363V32.0004H74.6363ZM73.4389 32.981L73.4626 32.9852L73.8099 31.0156L73.7861 31.0114L73.4389 32.981ZM72.6514 31.6878L72.6277 31.8226L74.5973 32.1699L74.6211 32.0351L72.6514 31.6878Z"
        fill="#98A2B3" mask="url(#path-6-inside-3_6556_1323)" />
    <mask id="path-8-inside-4_6556_1323" fill="white">
        <path fill-rule="evenodd" clip-rule="evenodd"
            d="M34.0335 30.3119L28.9748 1.62258H38.6855L43.7442 30.3119H34.0335ZM44.0143 31.983L44.0381 31.9788L44.0143 31.8438V31.983ZM28.6895 0.00419894L28.7133 0V0.139251L28.6895 0.00419894Z" />
    </mask>
    <path
        d="M28.9748 1.62258V0.622577H27.7831L27.99 1.79623L28.9748 1.62258ZM34.0335 30.3119L33.0487 30.4856L33.1944 31.3119H34.0335V30.3119ZM38.6855 1.62258L39.6703 1.44893L39.5246 0.622577H38.6855V1.62258ZM43.7442 30.3119V31.3119H44.936L44.729 30.1383L43.7442 30.3119ZM44.0143 31.983H43.0143V33.1748L44.188 32.9678L44.0143 31.983ZM44.0381 31.9788L44.2118 32.9636L45.1966 32.79L45.0229 31.8052L44.0381 31.9788ZM44.0143 31.8438L44.9991 31.6701L43.0143 31.8438H44.0143ZM28.7133 0H29.7133V-1.19175L28.5396 -0.984808L28.7133 0ZM28.6895 0.00419894L28.5158 -0.980609L27.531 -0.806961L27.7046 0.177847L28.6895 0.00419894ZM28.7133 0.139251L27.7285 0.312899L29.7133 0.139251H28.7133ZM27.99 1.79623L33.0487 30.4856L35.0183 30.1383L29.9596 1.44893L27.99 1.79623ZM38.6855 0.622577H28.9748V2.62258H38.6855V0.622577ZM44.729 30.1383L39.6703 1.44893L37.7007 1.79623L42.7594 30.4856L44.729 30.1383ZM34.0335 31.3119H43.7442V29.3119H34.0335V31.3119ZM44.188 32.9678L44.2118 32.9636L43.8645 30.994L43.8407 30.9982L44.188 32.9678ZM45.0229 31.8052L44.9991 31.6701L43.0295 32.0174L43.0533 32.1525L45.0229 31.8052ZM43.0143 31.8438V31.983H45.0143V31.8438H43.0143ZM28.5396 -0.984808L28.5158 -0.980609L28.8631 0.989007L28.8869 0.984808L28.5396 -0.984808ZM29.7133 0.139251V0H27.7133V0.139251H29.7133ZM27.7046 0.177847L27.7285 0.312899L29.6981 -0.0343969L29.6743 -0.169449L27.7046 0.177847Z"
        fill="#98A2B3" mask="url(#path-8-inside-4_6556_1323)" />
</svg>